# xmcd
#
# Track frame offsets: 
#        182
#        13367
#        27270
#        41700
#        58382
#        72647
#        84257
#        100592
#        116087
#        127950
#        140540
#        155297
#
# Disc length: 2280 seconds
#
# Revision: 2
# Processed by: cddbd v1.5.2PL0 Copyright (c) Steve Scherf et al.
# Submitted via: ExactAudioCopyFreeDBPlugin 1.0
#
DISCID=a608e60c
DTITLE=Charley Pride - Classics With Pride
DYEAR=1996
DGENRE=Country
TTITLE0=You've Got To Stand For Something
TTITLE1=Sea Of Heartbreak
TTITLE2=Please Help Me, I'm Falling
TTITLE3=The Hunger
TTITLE4=But I Do
TTITLE5=Ramblin'Rose
TTITLE6=Walls
TTITLE7=Hello Love
TTITLE8=Lovesick Blues
TTITLE9=Lone Star Lonely
TTITLE10=I  Love You Because
TTITLE11=It's Just A Matter Of Time
EXTD=
EXTT0=
EXTT1=
EXTT2=
EXTT3=
EXTT4=
EXTT5=
EXTT6=
EXTT7=
EXTT8=
EXTT9=
EXTT10=
EXTT11=
PLAYORDER=
